<?xml version="1.0" encoding="UTF-8"?>
<svg xmlns="http://www.w3.org/2000/svg" viewBox="0 0 680 240">
  <rect width="680" height="240" fill="#ffffff"/>
  <path d="M1041 1619V537Q1041 353 1029.0 278.5Q1017 204 958.0 125.5Q899 47 802.5 6.5Q706 -34 575 -34Q430 -34 319.0 14.0Q208 62 153.0 139.0Q98 216 88.0 301.5Q78 387 78 661V1619H499V405Q499 299 510.5 269.5Q522 240 557 240Q597 240 608.5 272.5Q620 305 620 426V1619Z" transform="matrix(0.042969,0,0.008352,-0.042969,153.99,112.00)" fill="#333333"/>
  <path d="M976 1129H585V1249Q585 1333 570.0 1356.0Q555 1379 520 1379Q482 1379 462.5 1348.0Q443 1317 443 1254Q443 1173 465 1132Q486 1091 584 1033Q865 866 938 759Q1011 652 1011 414Q1011 241 970.5 159.0Q930 77 814.0 21.5Q698 -34 544 -34Q375 -34 255.5 30.0Q136 94 99.0 193.0Q62 292 62 474V580H453V383Q453 292 469.5 266.0Q486 240 528 240Q570 240 590.5 273.0Q611 306 611 371Q611 514 572 558Q532 602 375 705Q218 809 167.0 856.0Q116 903 82.5 986.0Q49 1069 49 1198Q49 1384 96.5 1470.0Q144 1556 250.0 1604.5Q356 1653 506 1653Q670 1653 785.5 1600.0Q901 1547 938.5 1466.5Q976 1386 976 1193Z" transform="matrix(0.042969,0,0.008352,-0.042969,202.11,112.00)" fill="#333333"/>
  <path d="M932 1619V1295H682V0H261V1295H12V1619Z" transform="matrix(0.042969,0,0.008352,-0.042969,247.62,112.00)" fill="#333333"/>
  <path d="M1046 671Q1046 427 1034.5 325.5Q1023 224 962.5 140.0Q902 56 799.0 11.0Q696 -34 559 -34Q429 -34 325.5 8.5Q222 51 159.0 136.0Q96 221 84.0 321.0Q72 421 72 671V948Q72 1192 83.5 1293.5Q95 1395 155.5 1479.0Q216 1563 319.0 1608.0Q422 1653 559 1653Q689 1653 792.5 1610.5Q896 1568 959.0 1483.0Q1022 1398 1034.0 1298.0Q1046 1198 1046 948ZM625 1203Q625 1316 612.5 1347.5Q600 1379 561 1379Q528 1379 510.5 1353.5Q493 1328 493 1203V447Q493 306 504.5 273.0Q516 240 558 240Q601 240 613.0 278.0Q625 316 625 459Z" transform="matrix(0.042969,0,0.008352,-0.042969,288.18,112.00)" fill="#333333"/>
  <path d="M1668 1619 1481 0H955Q883 373 828 848Q803 645 711 0H188L0 1619H409L452 1054L496 509Q519 932 612 1619H1050Q1059 1548 1096 1085L1142 470Q1177 1057 1259 1619Z" transform="matrix(0.042969,0,0.008352,-0.042969,336.26,112.00)" fill="#f57c2a"/>
  <path d="M976 1129H585V1249Q585 1333 570.0 1356.0Q555 1379 520 1379Q482 1379 462.5 1348.0Q443 1317 443 1254Q443 1173 465 1132Q486 1091 584 1033Q865 866 938 759Q1011 652 1011 414Q1011 241 970.5 159.0Q930 77 814.0 21.5Q698 -34 544 -34Q375 -34 255.5 30.0Q136 94 99.0 193.0Q62 292 62 474V580H453V383Q453 292 469.5 266.0Q486 240 528 240Q570 240 590.5 273.0Q611 306 611 371Q611 514 572 558Q532 602 375 705Q218 809 167.0 856.0Q116 903 82.5 986.0Q49 1069 49 1198Q49 1384 96.5 1470.0Q144 1556 250.0 1604.5Q356 1653 506 1653Q670 1653 785.5 1600.0Q901 1547 938.5 1466.5Q976 1386 976 1193Z" transform="matrix(0.042969,0,0.008352,-0.042969,407.93,112.00)" fill="#f57c2a"/>
  <path d="M1087 1619 846 888 1110 0H675L505 694V0H84V1619H505V990L692 1619Z" transform="matrix(0.042969,0,0.008352,-0.042969,453.44,112.00)" fill="#f57c2a"/>
  <path d="M505 1619V0H84V1619Z" transform="matrix(0.042969,0,0.008352,-0.042969,500.66,112.00)" fill="#f57c2a"/>
  <path d="M801 387 982 368Q914 169 788.5 72.5Q663 -24 503 -24Q330 -24 222.5 88.0Q115 200 115 401Q115 575 184.0 743.0Q253 911 381.5 998.5Q510 1086 675 1086Q846 1086 946.0 989.5Q1046 893 1046 734L868 722Q867 823 809.5 880.0Q752 937 658 937Q549 937 469.0 868.0Q389 799 343.5 658.5Q298 518 298 388Q298 252 358.0 184.0Q418 116 506 116Q594 116 674.5 183.0Q755 250 801 387Z" transform="matrix(0.011719,0,0.002278,-0.011719,197.24,164.00)" fill="#777777"/>
  <path d="M40 0 69 140 640 783Q701 851 776 924Q647 911 591 911H196L228 1062H1049L1025 948L449 301Q400 246 303 150Q454 159 510 159H928L895 0Z" transform="matrix(0.011719,0,0.002278,-0.011719,210.24,164.00)" fill="#777777"/>
  <path d="M0 -410 11 -240Q67 -256 120 -256Q175 -256 209 -231Q253 -198 305 -107L363 -3L186 1062H364L444 525Q468 366 485 207L960 1062H1149L472 -141Q374 -317 298.0 -374.0Q222 -431 123 -431Q60 -431 0 -410Z" transform="matrix(0.011719,0,0.002278,-0.011719,223.24,164.00)" fill="#777777"/>
  <path d="M85 363 266 374Q266 296 290.0 241.0Q314 186 378.5 151.0Q443 116 529 116Q649 116 709.0 164.0Q769 212 769 277Q769 324 733 366Q696 408 552.5 469.5Q409 531 369 556Q302 597 268.0 652.5Q234 708 234 780Q234 906 334.0 996.0Q434 1086 614 1086Q814 1086 918.5 993.5Q1023 901 1027 750L850 738Q846 834 782.0 890.0Q718 946 601 946Q507 946 455.0 903.0Q403 860 403 810Q403 760 448 722Q478 696 603 642Q811 552 865 500Q951 417 951 298Q951 219 902.5 143.0Q854 67 754.5 21.5Q655 -24 520 -24Q336 -24 207 67Q78 158 85 363Z" transform="matrix(0.011719,0,0.002278,-0.011719,236.24,164.00)" fill="#777777"/>
  <path d="M40 0 69 140 640 783Q701 851 776 924Q647 911 591 911H196L228 1062H1049L1025 948L449 301Q400 246 303 150Q454 159 510 159H928L895 0Z" transform="matrix(0.011719,0,0.002278,-0.011719,249.24,164.00)" fill="#777777"/>
  <path d="M801 387 982 368Q914 169 788.5 72.5Q663 -24 503 -24Q330 -24 222.5 88.0Q115 200 115 401Q115 575 184.0 743.0Q253 911 381.5 998.5Q510 1086 675 1086Q846 1086 946.0 989.5Q1046 893 1046 734L868 722Q867 823 809.5 880.0Q752 937 658 937Q549 937 469.0 868.0Q389 799 343.5 658.5Q298 518 298 388Q298 252 358.0 184.0Q418 116 506 116Q594 116 674.5 183.0Q755 250 801 387Z" transform="matrix(0.011719,0,0.002278,-0.011719,262.24,164.00)" fill="#777777"/>
  <path d="M40 0 69 140 640 783Q701 851 776 924Q647 911 591 911H196L228 1062H1049L1025 948L449 301Q400 246 303 150Q454 159 510 159H928L895 0Z" transform="matrix(0.011719,0,0.002278,-0.011719,275.24,164.00)" fill="#777777"/>
  <path d="M848 361 1024 343Q986 212 849.5 94.0Q713 -24 524 -24Q406 -24 307.5 30.5Q209 85 157.5 189.0Q106 293 106 426Q106 600 186.5 763.5Q267 927 395.0 1006.5Q523 1086 672 1086Q862 1086 975.5 968.0Q1089 850 1089 646Q1089 568 1075 486H293Q289 455 289 430Q289 281 357.5 202.5Q426 124 525 124Q618 124 708.0 185.0Q798 246 848 361ZM322 624H918Q919 652 919 664Q919 800 851.0 872.5Q783 945 676 945Q560 945 464.5 865.0Q369 785 322 624Z" transform="matrix(0.011719,0,0.002278,-0.011719,288.24,164.00)" fill="#777777"/>
  <path d="M68 0 290 1062H454L415 877Q522 986 615.0 1036.0Q708 1086 805 1086Q934 1086 1007.5 1016.0Q1081 946 1081 829Q1081 770 1055 643L920 0H739L880 673Q901 771 901 818Q901 871 864.5 904.0Q828 937 759 937Q620 937 511.5 837.0Q403 737 352 494L249 0Z" transform="matrix(0.011719,0,0.002278,-0.011719,302.59,164.00)" fill="#777777"/>
  <path d="M325 1261 368 1466H548L505 1261ZM61 0 283 1062H464L242 0Z" transform="matrix(0.011719,0,0.002278,-0.011719,316.93,164.00)" fill="#777777"/>
  <path d="M848 361 1024 343Q986 212 849.5 94.0Q713 -24 524 -24Q406 -24 307.5 30.5Q209 85 157.5 189.0Q106 293 106 426Q106 600 186.5 763.5Q267 927 395.0 1006.5Q523 1086 672 1086Q862 1086 975.5 968.0Q1089 850 1089 646Q1089 568 1075 486H293Q289 455 289 430Q289 281 357.5 202.5Q426 124 525 124Q618 124 708.0 185.0Q798 246 848 361ZM322 624H918Q919 652 919 664Q919 800 851.0 872.5Q783 945 676 945Q560 945 464.5 865.0Q369 785 322 624Z" transform="matrix(0.011719,0,0.002278,-0.011719,323.27,164.00)" fill="#777777"/>
  <line x1="354.9" y1="146.0" x2="353.8" y2="165.9" stroke="#f57c2a" stroke-width="1.8" stroke-linecap="round"/>
  <path d="M67 0 289 1062H470L433 887Q534 1000 613.5 1043.0Q693 1086 786 1086Q885 1086 951.5 1033.5Q1018 981 1039 887Q1120 987 1209.5 1036.5Q1299 1086 1398 1086Q1531 1086 1597.5 1023.0Q1664 960 1664 846Q1664 797 1641 684L1498 0H1317L1463 702Q1482 788 1482 825Q1482 877 1449.0 907.0Q1416 937 1356 937Q1275 937 1191.0 888.0Q1107 839 1060.5 759.5Q1014 680 979 515L871 0H690L840 717Q856 790 856 821Q856 873 823.5 905.0Q791 937 739 937Q662 937 577.5 888.0Q493 839 440.0 751.5Q387 664 353 502L248 0Z" transform="matrix(0.011719,0,0.002278,-0.011719,370.01,164.00)" fill="#777777"/>
  <path d="M784 132Q690 51 603.0 13.5Q516 -24 417 -24Q270 -24 180.0 62.5Q90 149 90 284Q90 373 130.5 441.5Q171 510 238.0 551.5Q305 593 402 611Q463 623 633.5 630.0Q804 637 878 666Q899 740 899 789Q899 852 853 888Q790 938 669 938Q555 938 482.5 887.5Q410 837 377 744L194 760Q250 918 371.5 1002.0Q493 1086 678 1086Q875 1086 990 992Q1078 922 1078 810Q1078 725 1053 613L994 349Q966 223 966 144Q966 94 988 0H805Q790 52 784 132ZM851 538Q813 523 769.5 515.0Q726 507 624 498Q466 484 401.0 462.5Q336 441 303.0 394.0Q270 347 270 290Q270 214 322.5 165.0Q375 116 472 116Q562 116 645.0 163.5Q728 211 776.0 296.0Q824 381 851 538Z" transform="matrix(0.011719,0,0.002278,-0.011719,391.01,164.00)" fill="#777777"/>
  <path d="M54 0 360 1466H541L235 0Z" transform="matrix(0.011719,0,0.002278,-0.011719,405.35,164.00)" fill="#777777"/>
  <path d="M100 403Q100 714 283 918Q434 1086 679 1086Q871 1086 988.5 966.0Q1106 846 1106 642Q1106 459 1032.0 301.5Q958 144 821.5 60.0Q685 -24 534 -24Q410 -24 308.5 29.0Q207 82 153.5 179.0Q100 276 100 403ZM281 421Q281 271 353.0 193.5Q425 116 536 116Q594 116 651.0 139.5Q708 163 757.0 211.0Q806 259 840.5 320.5Q875 382 896 453Q927 552 927 643Q927 787 854.5 866.5Q782 946 672 946Q587 946 517.0 905.5Q447 865 390.5 787.0Q334 709 307.5 605.5Q281 502 281 421Z" transform="matrix(0.011719,0,0.002278,-0.011719,411.69,164.00)" fill="#777777"/>
  <path d="M270 0 159 1062H333L381 585L400 317Q402 287 406 196Q436 298 457.0 352.5Q478 407 524 508L777 1062H974L1009 531Q1017 410 1019 208Q1069 342 1182 580L1410 1062H1591L1072 0H884L844 623Q840 681 838 849Q797 742 741 618L460 0Z" transform="matrix(0.011719,0,0.002278,-0.011719,426.03,164.00)" fill="#777777"/>
  <path d="M784 132Q690 51 603.0 13.5Q516 -24 417 -24Q270 -24 180.0 62.5Q90 149 90 284Q90 373 130.5 441.5Q171 510 238.0 551.5Q305 593 402 611Q463 623 633.5 630.0Q804 637 878 666Q899 740 899 789Q899 852 853 888Q790 938 669 938Q555 938 482.5 887.5Q410 837 377 744L194 760Q250 918 371.5 1002.0Q493 1086 678 1086Q875 1086 990 992Q1078 922 1078 810Q1078 725 1053 613L994 349Q966 223 966 144Q966 94 988 0H805Q790 52 784 132ZM851 538Q813 523 769.5 515.0Q726 507 624 498Q466 484 401.0 462.5Q336 441 303.0 394.0Q270 347 270 290Q270 214 322.5 165.0Q375 116 472 116Q562 116 645.0 163.5Q728 211 776.0 296.0Q824 381 851 538Z" transform="matrix(0.011719,0,0.002278,-0.011719,444.37,164.00)" fill="#777777"/>
  <path d="M68 0 290 1062H454L415 877Q522 986 615.0 1036.0Q708 1086 805 1086Q934 1086 1007.5 1016.0Q1081 946 1081 829Q1081 770 1055 643L920 0H739L880 673Q901 771 901 818Q901 871 864.5 904.0Q828 937 759 937Q620 937 511.5 837.0Q403 737 352 494L249 0Z" transform="matrix(0.011719,0,0.002278,-0.011719,458.71,164.00)" fill="#777777"/>
  <path d="M325 1261 368 1466H548L505 1261ZM61 0 283 1062H464L242 0Z" transform="matrix(0.011719,0,0.002278,-0.011719,473.06,164.00)" fill="#777777"/>
  <path d="M848 361 1024 343Q986 212 849.5 94.0Q713 -24 524 -24Q406 -24 307.5 30.5Q209 85 157.5 189.0Q106 293 106 426Q106 600 186.5 763.5Q267 927 395.0 1006.5Q523 1086 672 1086Q862 1086 975.5 968.0Q1089 850 1089 646Q1089 568 1075 486H293Q289 455 289 430Q289 281 357.5 202.5Q426 124 525 124Q618 124 708.0 185.0Q798 246 848 361ZM322 624H918Q919 652 919 664Q919 800 851.0 872.5Q783 945 676 945Q560 945 464.5 865.0Q369 785 322 624Z" transform="matrix(0.011719,0,0.002278,-0.011719,479.39,164.00)" fill="#777777"/>
</svg>