<?xml version="1.0" encoding="UTF-8"?>
<svg xmlns="http://www.w3.org/2000/svg" viewBox="0 0 700 200">
  <rect width="700" height="200" fill="#ffffff"/>
  <path d="M1041 1619V537Q1041 353 1029.0 278.5Q1017 204 958.0 125.5Q899 47 802.5 6.5Q706 -34 575 -34Q430 -34 319.0 14.0Q208 62 153.0 139.0Q98 216 88.0 301.5Q78 387 78 661V1619H499V405Q499 299 510.5 269.5Q522 240 557 240Q597 240 608.5 272.5Q620 305 620 426V1619Z" transform="matrix(0.043945,0.000000,0.006176,-0.043945,159.76,110.00)" fill="#444444"/>
  <path d="M976 1129H585V1249Q585 1333 570.0 1356.0Q555 1379 520 1379Q482 1379 462.5 1348.0Q443 1317 443 1254Q443 1173 465 1132Q486 1091 584 1033Q865 866 938 759Q1011 652 1011 414Q1011 241 970.5 159.0Q930 77 814.0 21.5Q698 -34 544 -34Q375 -34 255.5 30.0Q136 94 99.0 193.0Q62 292 62 474V580H453V383Q453 292 469.5 266.0Q486 240 528 240Q570 240 590.5 273.0Q611 306 611 371Q611 514 572 558Q532 602 375 705Q218 809 167.0 856.0Q116 903 82.5 986.0Q49 1069 49 1198Q49 1384 96.5 1470.0Q144 1556 250.0 1604.5Q356 1653 506 1653Q670 1653 785.5 1600.0Q901 1547 938.5 1466.5Q976 1386 976 1193Z" transform="matrix(0.043945,0.000000,0.006176,-0.043945,208.98,110.00)" fill="#444444"/>
  <path d="M932 1619V1295H682V0H261V1295H12V1619Z" transform="matrix(0.043945,0.000000,0.006176,-0.043945,255.52,110.00)" fill="#444444"/>
  <path d="M1046 671Q1046 427 1034.5 325.5Q1023 224 962.5 140.0Q902 56 799.0 11.0Q696 -34 559 -34Q429 -34 325.5 8.5Q222 51 159.0 136.0Q96 221 84.0 321.0Q72 421 72 671V948Q72 1192 83.5 1293.5Q95 1395 155.5 1479.0Q216 1563 319.0 1608.0Q422 1653 559 1653Q689 1653 792.5 1610.5Q896 1568 959.0 1483.0Q1022 1398 1034.0 1298.0Q1046 1198 1046 948ZM625 1203Q625 1316 612.5 1347.5Q600 1379 561 1379Q528 1379 510.5 1353.5Q493 1328 493 1203V447Q493 306 504.5 273.0Q516 240 558 240Q601 240 613.0 278.0Q625 316 625 459Z" transform="matrix(0.043945,0.000000,0.006176,-0.043945,297.00,110.00)" fill="#444444"/>
  <path d="M1668 1619 1481 0H955Q883 373 828 848Q803 645 711 0H188L0 1619H409L452 1054L496 509Q519 932 612 1619H1050Q1059 1548 1096 1085L1142 470Q1177 1057 1259 1619Z" transform="matrix(0.043945,0.000000,0.006176,-0.043945,346.18,110.00)" fill="#f26b1d"/>
  <path d="M976 1129H585V1249Q585 1333 570.0 1356.0Q555 1379 520 1379Q482 1379 462.5 1348.0Q443 1317 443 1254Q443 1173 465 1132Q486 1091 584 1033Q865 866 938 759Q1011 652 1011 414Q1011 241 970.5 159.0Q930 77 814.0 21.5Q698 -34 544 -34Q375 -34 255.5 30.0Q136 94 99.0 193.0Q62 292 62 474V580H453V383Q453 292 469.5 266.0Q486 240 528 240Q570 240 590.5 273.0Q611 306 611 371Q611 514 572 558Q532 602 375 705Q218 809 167.0 856.0Q116 903 82.5 986.0Q49 1069 49 1198Q49 1384 96.5 1470.0Q144 1556 250.0 1604.5Q356 1653 506 1653Q670 1653 785.5 1600.0Q901 1547 938.5 1466.5Q976 1386 976 1193Z" transform="matrix(0.043945,0.000000,0.006176,-0.043945,419.48,110.00)" fill="#f26b1d"/>
  <path d="M1087 1619 846 888 1110 0H675L505 694V0H84V1619H505V990L692 1619Z" transform="matrix(0.043945,0.000000,0.006176,-0.043945,466.02,110.00)" fill="#f26b1d"/>
  <path d="M505 1619V0H84V1619Z" transform="matrix(0.043945,0.000000,0.006176,-0.043945,514.31,110.00)" fill="#f26b1d"/>
  <path d="M965 826H584V979Q584 1059 571.0 1087.5Q558 1116 523 1116Q488 1116 476.0 1091.0Q464 1066 464 979V353Q464 282 482.0 246.5Q500 211 535 211Q576 211 590.5 248.0Q605 285 605 388V546H965Q964 387 953.5 307.5Q943 228 886.5 144.5Q830 61 739.0 18.5Q648 -24 514 -24Q343 -24 243.0 34.5Q143 93 101.5 198.5Q60 304 60 498V875Q60 1044 94.0 1130.0Q128 1216 239.0 1283.5Q350 1351 509 1351Q667 1351 779.0 1284.0Q891 1217 928.0 1115.0Q965 1013 965 826Z" transform="matrix(0.007812,0,0.001098,-0.007812,164.76,140.00)" fill="#777"/>
  <path d="M701 1327V1033L403 266H701V0H12V278L317 1061H43V1327Z" transform="matrix(0.007812,0,0.001098,-0.007812,172.67,140.00)" fill="#777"/>
  <path d="M918 1327 802 367Q775 139 756.5 56.0Q738 -27 695.0 -81.0Q652 -135 575.5 -160.5Q499 -186 331 -186H86V26Q180 26 207.0 35.5Q234 45 234 78Q234 94 209 217L-12 1327H355L487 432L551 1327Z" transform="matrix(0.007812,0,0.001098,-0.007812,178.29,140.00)" fill="#777"/>
  <path d="M897 903H539V975Q539 1067 528.5 1091.5Q518 1116 476 1116Q442 1116 425.0 1093.5Q408 1071 408 1026Q408 965 416.5 936.5Q425 908 467.5 874.0Q510 840 642 775Q818 689 873 613Q928 537 928 392Q928 230 886.0 147.5Q844 65 745.5 20.5Q647 -24 508 -24Q354 -24 244.5 24.0Q135 72 94.0 154.0Q53 236 53 402V466H411V382Q411 275 424.5 243.0Q438 211 478 211Q521 211 538.0 232.5Q555 254 555 323Q555 418 533 442Q510 466 298 584Q120 684 81.0 765.5Q42 847 42 959Q42 1118 84.0 1193.5Q126 1269 226.5 1310.0Q327 1351 460 1351Q592 1351 684.5 1317.5Q777 1284 826.5 1229.0Q876 1174 886.5 1127.0Q897 1080 897 980Z" transform="matrix(0.007812,0,0.001098,-0.007812,185.46,140.00)" fill="#777"/>
  <path d="M701 1327V1033L403 266H701V0H12V278L317 1061H43V1327Z" transform="matrix(0.007812,0,0.001098,-0.007812,193.00,140.00)" fill="#777"/>
  <path d="M965 826H584V979Q584 1059 571.0 1087.5Q558 1116 523 1116Q488 1116 476.0 1091.0Q464 1066 464 979V353Q464 282 482.0 246.5Q500 211 535 211Q576 211 590.5 248.0Q605 285 605 388V546H965Q964 387 953.5 307.5Q943 228 886.5 144.5Q830 61 739.0 18.5Q648 -24 514 -24Q343 -24 243.0 34.5Q143 93 101.5 198.5Q60 304 60 498V875Q60 1044 94.0 1130.0Q128 1216 239.0 1283.5Q350 1351 509 1351Q667 1351 779.0 1284.0Q891 1217 928.0 1115.0Q965 1013 965 826Z" transform="matrix(0.007812,0,0.001098,-0.007812,198.61,140.00)" fill="#777"/>
  <path d="M701 1327V1033L403 266H701V0H12V278L317 1061H43V1327Z" transform="matrix(0.007812,0,0.001098,-0.007812,206.53,140.00)" fill="#777"/>
  <path d="M433 813H54V902Q54 1056 89.5 1139.5Q125 1223 232.0 1287.0Q339 1351 510 1351Q715 1351 819.0 1278.5Q923 1206 944.0 1100.5Q965 995 965 666V0H572V118Q535 47 476.5 11.5Q418 -24 337 -24Q231 -24 142.5 35.5Q54 95 54 296V405Q54 554 101.0 608.0Q148 662 334 734Q533 812 547.0 839.0Q561 866 561 949Q561 1053 545.5 1084.5Q530 1116 494 1116Q453 1116 443.0 1089.5Q433 1063 433 952ZM561 631Q464 560 448.5 512.0Q433 464 433 374Q433 271 446.5 241.0Q460 211 500 211Q538 211 549.5 234.5Q561 258 561 358Z" transform="matrix(0.007812,0,0.001098,-0.007812,212.14,140.00)" fill="#777"/>
  <path d="M483 1327 476 1205Q520 1278 583.5 1314.5Q647 1351 730 1351Q834 1351 900.0 1302.0Q966 1253 985.0 1178.5Q1004 1104 1004 930V0H600V919Q600 1056 591.0 1086.0Q582 1116 541 1116Q498 1116 487.0 1081.5Q476 1047 476 897V0H72V1327Z" transform="matrix(0.007812,0,0.001098,-0.007812,220.21,140.00)" fill="#777"/>
  <path d="M488 1619V1408H72V1619ZM488 1327V0H72V1327Z" transform="matrix(0.007812,0,0.001098,-0.007812,228.57,140.00)" fill="#777"/>
  <path d="M987 640H464V353Q464 263 477.0 237.0Q490 211 527 211Q573 211 588.5 245.5Q604 280 604 379V554H987V456Q987 333 971.5 267.0Q956 201 899.0 126.0Q842 51 754.5 13.5Q667 -24 535 -24Q407 -24 309.0 13.0Q211 50 156.5 114.5Q102 179 81.0 256.5Q60 334 60 482V869Q60 1043 107.0 1143.5Q154 1244 261.0 1297.5Q368 1351 507 1351Q677 1351 787.5 1286.5Q898 1222 942.5 1115.5Q987 1009 987 816ZM582 856V953Q582 1056 571.0 1086.0Q560 1116 526 1116Q484 1116 474.0 1090.5Q464 1065 464 953V856Z" transform="matrix(0.007812,0,0.001098,-0.007812,232.96,140.00)" fill="#777"/>
  <path d="M169 1619H386V-265H169Z" transform="matrix(0.007812,0,0.001098,-0.007812,245.14,140.00)" fill="#f26b1d"/>
  <path d="M471 1327 464 1201Q511 1276 576.0 1313.5Q641 1351 724 1351Q886 1351 979 1201Q1030 1276 1094.0 1313.5Q1158 1351 1236 1351Q1339 1351 1406.5 1301.0Q1474 1251 1493.0 1178.5Q1512 1106 1512 943V0H1120V865Q1120 1035 1108.5 1075.5Q1097 1116 1055 1116Q1012 1116 999.5 1076.0Q987 1036 987 865V0H595V843Q595 1038 585.5 1077.0Q576 1116 533 1116Q506 1116 487.0 1095.5Q468 1075 466.0 1045.5Q464 1016 464 920V0H72V1327Z" transform="matrix(0.007812,0,0.001098,-0.007812,253.47,140.00)" fill="#777"/>
  <path d="M433 813H54V902Q54 1056 89.5 1139.5Q125 1223 232.0 1287.0Q339 1351 510 1351Q715 1351 819.0 1278.5Q923 1206 944.0 1100.5Q965 995 965 666V0H572V118Q535 47 476.5 11.5Q418 -24 337 -24Q231 -24 142.5 35.5Q54 95 54 296V405Q54 554 101.0 608.0Q148 662 334 734Q533 812 547.0 839.0Q561 866 561 949Q561 1053 545.5 1084.5Q530 1116 494 1116Q453 1116 443.0 1089.5Q433 1063 433 952ZM561 631Q464 560 448.5 512.0Q433 464 433 374Q433 271 446.5 241.0Q460 211 500 211Q538 211 549.5 234.5Q561 258 561 358Z" transform="matrix(0.007812,0,0.001098,-0.007812,265.81,140.00)" fill="#777"/>
  <path d="M488 1619V0H72V1619Z" transform="matrix(0.007812,0,0.001098,-0.007812,273.87,140.00)" fill="#777"/>
  <path d="M986 861V536Q986 357 968.0 273.5Q950 190 891.0 117.5Q832 45 739.5 10.5Q647 -24 527 -24Q393 -24 300.0 5.5Q207 35 155.5 94.5Q104 154 82.0 238.5Q60 323 60 492V832Q60 1017 100.0 1121.0Q140 1225 244.0 1288.0Q348 1351 510 1351Q646 1351 743.5 1310.5Q841 1270 894.0 1205.0Q947 1140 966.5 1071.0Q986 1002 986 861ZM582 961Q582 1063 571.0 1089.5Q560 1116 524 1116Q488 1116 476.0 1089.5Q464 1063 464 961V362Q464 268 476.0 239.5Q488 211 523 211Q559 211 570.5 237.0Q582 263 582 349Z" transform="matrix(0.007812,0,0.001098,-0.007812,278.25,140.00)" fill="#777"/>
  <path d="M1377 1327 1216 0H777Q741 243 694 640Q678 466 649 288L604 0H165L-6 1327H342Q346 1275 430 568Q436 640 520 1327H855L937 568Q956 900 1029 1327Z" transform="matrix(0.007812,0,0.001098,-0.007812,286.43,140.00)" fill="#777"/>
  <path d="M433 813H54V902Q54 1056 89.5 1139.5Q125 1223 232.0 1287.0Q339 1351 510 1351Q715 1351 819.0 1278.5Q923 1206 944.0 1100.5Q965 995 965 666V0H572V118Q535 47 476.5 11.5Q418 -24 337 -24Q231 -24 142.5 35.5Q54 95 54 296V405Q54 554 101.0 608.0Q148 662 334 734Q533 812 547.0 839.0Q561 866 561 949Q561 1053 545.5 1084.5Q530 1116 494 1116Q453 1116 443.0 1089.5Q433 1063 433 952ZM561 631Q464 560 448.5 512.0Q433 464 433 374Q433 271 446.5 241.0Q460 211 500 211Q538 211 549.5 234.5Q561 258 561 358Z" transform="matrix(0.007812,0,0.001098,-0.007812,297.14,140.00)" fill="#777"/>
  <path d="M483 1327 476 1205Q520 1278 583.5 1314.5Q647 1351 730 1351Q834 1351 900.0 1302.0Q966 1253 985.0 1178.5Q1004 1104 1004 930V0H600V919Q600 1056 591.0 1086.0Q582 1116 541 1116Q498 1116 487.0 1081.5Q476 1047 476 897V0H72V1327Z" transform="matrix(0.007812,0,0.001098,-0.007812,305.21,140.00)" fill="#777"/>
  <path d="M488 1619V1408H72V1619ZM488 1327V0H72V1327Z" transform="matrix(0.007812,0,0.001098,-0.007812,313.57,140.00)" fill="#777"/>
  <path d="M987 640H464V353Q464 263 477.0 237.0Q490 211 527 211Q573 211 588.5 245.5Q604 280 604 379V554H987V456Q987 333 971.5 267.0Q956 201 899.0 126.0Q842 51 754.5 13.5Q667 -24 535 -24Q407 -24 309.0 13.0Q211 50 156.5 114.5Q102 179 81.0 256.5Q60 334 60 482V869Q60 1043 107.0 1143.5Q154 1244 261.0 1297.5Q368 1351 507 1351Q677 1351 787.5 1286.5Q898 1222 942.5 1115.5Q987 1009 987 816ZM582 856V953Q582 1056 571.0 1086.0Q560 1116 526 1116Q484 1116 474.0 1090.5Q464 1065 464 953V856Z" transform="matrix(0.007812,0,0.001098,-0.007812,317.96,140.00)" fill="#777"/>
</svg>